<svg viewBox="0 0 48 48" xmlns="http://www.w3.org/2000/svg" xmlns:xlink="http://www.w3.org/1999/xlink" width="48.000000" height="48.000000" fill="none" customFrame="#000000">
	<rect id="favicon" width="48.000000" height="48.000000" x="0.000000" y="0.000000" fill="rgb(255,255,255)" fill-opacity="0" />
	<g id="组合 140">
		<rect id="rect" width="48.000000" height="48.000000" x="0.000000" y="0.000000" rx="24.000000" fill="rgb(0,0,0)" />
		<g id="组合 138">
			<path id="path" d="M18.7453 20.1647C15.1126 19.0351 13.2935 15.4998 14.6044 12.5558C15.9154 9.61183 20.1277 8.00544 23.4922 9.50363C26.8567 11.0018 29.1012 15.7602 27.0789 16.2508C25.2099 16.7217 23.5967 17.6413 22.2394 19.0097C20.8481 20.3075 19.4796 20.3925 18.7453 20.1647Z" fill="rgb(255,255,255)" fill-rule="evenodd" />
			<ellipse id="ellipse" rx="7.742945" ry="6.266717" cx="7.74294519" cy="6.26671696" fill="rgb(255,255,255)" transform="matrix(-0.990268,0.139174,-0.139174,-0.990268,19.8594,30.3677)" />
			<path id="path" d="M30.9393 16.0519C37.0308 16.0519 41.9689 20.1495 41.9689 25.204C41.9689 30.2585 37.8422 34.9956 31.7494 34.9956C25.6566 34.9956 19.9102 30.2585 19.9102 25.204C19.9102 20.1495 24.846 16.0519 30.9393 16.0519Z" fill="rgb(255,255,255)" fill-rule="evenodd" />
		</g>
	</g>
</svg>
